<?xml version="1.0" encoding="utf-8" standalone="no"?>
<!DOCTYPE svg PUBLIC "-//W3C//DTD SVG 1.1//EN"
  "http://www.w3.org/Graphics/SVG/1.1/DTD/svg11.dtd">
<svg xmlns:xlink="http://www.w3.org/1999/xlink" width="864pt" height="504pt" viewBox="0 0 864 504" xmlns="http://www.w3.org/2000/svg" version="1.1">
 <metadata>
  <rdf:RDF xmlns:dc="http://purl.org/dc/elements/1.1/" xmlns:cc="http://creativecommons.org/ns#" xmlns:rdf="http://www.w3.org/1999/02/22-rdf-syntax-ns#">
   <cc:Work>
    <dc:type rdf:resource="http://purl.org/dc/dcmitype/StillImage"/>
    <dc:date>2022-11-29T13:43:12.371329</dc:date>
    <dc:format>image/svg+xml</dc:format>
    <dc:creator>
     <cc:Agent>
      <dc:title>Matplotlib v3.6.2, https://matplotlib.org/</dc:title>
     </cc:Agent>
    </dc:creator>
   </cc:Work>
  </rdf:RDF>
 </metadata>
 <defs>
  <style type="text/css">*{stroke-linejoin: round; stroke-linecap: butt}</style>
 </defs>
 <g id="figure_1">
  <g id="patch_1">
   <path d="M 0 504 
L 864 504 
L 864 0 
L 0 0 
z
" style="fill: #ffffff"/>
  </g>
  <g id="axes_1">
   <g id="patch_2">
    <path d="M 84.35 447.64 
L 853.2 447.64 
L 853.2 10.8 
L 84.35 10.8 
z
" style="fill: #ffffff"/>
   </g>
   <g id="patch_3">
    <path d="M 407.52 144 
L 529.2 144 
L 529.2 65.52 
L 407.52 65.52 
L 407.52 144 
z
" clip-path="url(#pe086812dac)" style="fill: none; stroke: #ff0000; stroke-width: 1.5; stroke-linejoin: miter"/>
   </g>
   <g id="matplotlib.axis_1">
    <g id="xtick_1">
     <g id="line2d_1">
      <path d="M 119.297727 447.64 
L 119.297727 10.8 
" clip-path="url(#pe086812dac)" style="fill: none; stroke-dasharray: 1,1.65; stroke-dashoffset: 0; stroke: #808080"/>
     </g>
     <g id="line2d_2">
      <defs>
       <path id="mb62d4d4c82" d="M 0 0 
L 0 3.5 
" style="stroke: #000000; stroke-width: 0.8"/>
      </defs>
      <g>
       <use xlink:href="#mb62d4d4c82" x="119.297727" y="447.64" style="stroke: #000000; stroke-width: 0.8"/>
      </g>
     </g>
     <g id="text_1">
      <!-- 0 -->
      <g transform="translate(114.797727 467.13875) scale(0.18 -0.18)">
       <defs>
        <path id="TimesNewRomanPSMT-30" d="M 231 2094 
Q 231 2819 450 3342 
Q 669 3866 1031 4122 
Q 1313 4325 1613 4325 
Q 2100 4325 2488 3828 
Q 2972 3213 2972 2159 
Q 2972 1422 2759 906 
Q 2547 391 2217 158 
Q 1888 -75 1581 -75 
Q 975 -75 572 641 
Q 231 1244 231 2094 
z
M 844 2016 
Q 844 1141 1059 588 
Q 1238 122 1591 122 
Q 1759 122 1940 273 
Q 2122 425 2216 781 
Q 2359 1319 2359 2297 
Q 2359 3022 2209 3506 
Q 2097 3866 1919 4016 
Q 1791 4119 1609 4119 
Q 1397 4119 1231 3928 
Q 1006 3669 925 3112 
Q 844 2556 844 2016 
z
" transform="scale(0.015625)"/>
       </defs>
       <use xlink:href="#TimesNewRomanPSMT-30"/>
      </g>
     </g>
    </g>
    <g id="xtick_2">
     <g id="line2d_3">
      <path d="M 235.790152 447.64 
L 235.790152 10.8 
" clip-path="url(#pe086812dac)" style="fill: none; stroke-dasharray: 1,1.65; stroke-dashoffset: 0; stroke: #808080"/>
     </g>
     <g id="line2d_4">
      <g>
       <use xlink:href="#mb62d4d4c82" x="235.790152" y="447.64" style="stroke: #000000; stroke-width: 0.8"/>
      </g>
     </g>
     <g id="text_2">
      <!-- 10 -->
      <g transform="translate(226.790152 467.13875) scale(0.18 -0.18)">
       <defs>
        <path id="TimesNewRomanPSMT-31" d="M 750 3822 
L 1781 4325 
L 1884 4325 
L 1884 747 
Q 1884 391 1914 303 
Q 1944 216 2037 169 
Q 2131 122 2419 116 
L 2419 0 
L 825 0 
L 825 116 
Q 1125 122 1212 167 
Q 1300 213 1334 289 
Q 1369 366 1369 747 
L 1369 3034 
Q 1369 3497 1338 3628 
Q 1316 3728 1258 3775 
Q 1200 3822 1119 3822 
Q 1003 3822 797 3725 
L 750 3822 
z
" transform="scale(0.015625)"/>
       </defs>
       <use xlink:href="#TimesNewRomanPSMT-31"/>
       <use xlink:href="#TimesNewRomanPSMT-30" x="50"/>
      </g>
     </g>
    </g>
    <g id="xtick_3">
     <g id="line2d_5">
      <path d="M 352.282576 447.64 
L 352.282576 10.8 
" clip-path="url(#pe086812dac)" style="fill: none; stroke-dasharray: 1,1.65; stroke-dashoffset: 0; stroke: #808080"/>
     </g>
     <g id="line2d_6">
      <g>
       <use xlink:href="#mb62d4d4c82" x="352.282576" y="447.64" style="stroke: #000000; stroke-width: 0.8"/>
      </g>
     </g>
     <g id="text_3">
      <!-- 20 -->
      <g transform="translate(343.282576 467.13875) scale(0.18 -0.18)">
       <defs>
        <path id="TimesNewRomanPSMT-32" d="M 2934 816 
L 2638 0 
L 138 0 
L 138 116 
Q 1241 1122 1691 1759 
Q 2141 2397 2141 2925 
Q 2141 3328 1894 3587 
Q 1647 3847 1303 3847 
Q 991 3847 742 3664 
Q 494 3481 375 3128 
L 259 3128 
Q 338 3706 661 4015 
Q 984 4325 1469 4325 
Q 1984 4325 2329 3994 
Q 2675 3663 2675 3213 
Q 2675 2891 2525 2569 
Q 2294 2063 1775 1497 
Q 997 647 803 472 
L 1909 472 
Q 2247 472 2383 497 
Q 2519 522 2628 598 
Q 2738 675 2819 816 
L 2934 816 
z
" transform="scale(0.015625)"/>
       </defs>
       <use xlink:href="#TimesNewRomanPSMT-32"/>
       <use xlink:href="#TimesNewRomanPSMT-30" x="50"/>
      </g>
     </g>
    </g>
    <g id="xtick_4">
     <g id="line2d_7">
      <path d="M 468.775 447.64 
L 468.775 10.8 
" clip-path="url(#pe086812dac)" style="fill: none; stroke-dasharray: 1,1.65; stroke-dashoffset: 0; stroke: #808080"/>
     </g>
     <g id="line2d_8">
      <g>
       <use xlink:href="#mb62d4d4c82" x="468.775" y="447.64" style="stroke: #000000; stroke-width: 0.8"/>
      </g>
     </g>
     <g id="text_4">
      <!-- 30 -->
      <g transform="translate(459.775 467.13875) scale(0.18 -0.18)">
       <defs>
        <path id="TimesNewRomanPSMT-33" d="M 325 3431 
Q 506 3859 782 4092 
Q 1059 4325 1472 4325 
Q 1981 4325 2253 3994 
Q 2459 3747 2459 3466 
Q 2459 3003 1878 2509 
Q 2269 2356 2469 2072 
Q 2669 1788 2669 1403 
Q 2669 853 2319 450 
Q 1863 -75 997 -75 
Q 569 -75 414 31 
Q 259 138 259 259 
Q 259 350 332 419 
Q 406 488 509 488 
Q 588 488 669 463 
Q 722 447 909 348 
Q 1097 250 1169 231 
Q 1284 197 1416 197 
Q 1734 197 1970 444 
Q 2206 691 2206 1028 
Q 2206 1275 2097 1509 
Q 2016 1684 1919 1775 
Q 1784 1900 1550 2001 
Q 1316 2103 1072 2103 
L 972 2103 
L 972 2197 
Q 1219 2228 1467 2375 
Q 1716 2522 1828 2728 
Q 1941 2934 1941 3181 
Q 1941 3503 1739 3701 
Q 1538 3900 1238 3900 
Q 753 3900 428 3381 
L 325 3431 
z
" transform="scale(0.015625)"/>
       </defs>
       <use xlink:href="#TimesNewRomanPSMT-33"/>
       <use xlink:href="#TimesNewRomanPSMT-30" x="50"/>
      </g>
     </g>
    </g>
    <g id="xtick_5">
     <g id="line2d_9">
      <path d="M 585.267424 447.64 
L 585.267424 10.8 
" clip-path="url(#pe086812dac)" style="fill: none; stroke-dasharray: 1,1.65; stroke-dashoffset: 0; stroke: #808080"/>
     </g>
     <g id="line2d_10">
      <g>
       <use xlink:href="#mb62d4d4c82" x="585.267424" y="447.64" style="stroke: #000000; stroke-width: 0.8"/>
      </g>
     </g>
     <g id="text_5">
      <!-- 40 -->
      <g transform="translate(576.267424 467.13875) scale(0.18 -0.18)">
       <defs>
        <path id="TimesNewRomanPSMT-34" d="M 2978 1563 
L 2978 1119 
L 2409 1119 
L 2409 0 
L 1894 0 
L 1894 1119 
L 100 1119 
L 100 1519 
L 2066 4325 
L 2409 4325 
L 2409 1563 
L 2978 1563 
z
M 1894 1563 
L 1894 3666 
L 406 1563 
L 1894 1563 
z
" transform="scale(0.015625)"/>
       </defs>
       <use xlink:href="#TimesNewRomanPSMT-34"/>
       <use xlink:href="#TimesNewRomanPSMT-30" x="50"/>
      </g>
     </g>
    </g>
    <g id="xtick_6">
     <g id="line2d_11">
      <path d="M 701.759848 447.64 
L 701.759848 10.8 
" clip-path="url(#pe086812dac)" style="fill: none; stroke-dasharray: 1,1.65; stroke-dashoffset: 0; stroke: #808080"/>
     </g>
     <g id="line2d_12">
      <g>
       <use xlink:href="#mb62d4d4c82" x="701.759848" y="447.64" style="stroke: #000000; stroke-width: 0.8"/>
      </g>
     </g>
     <g id="text_6">
      <!-- 50 -->
      <g transform="translate(692.759848 467.13875) scale(0.18 -0.18)">
       <defs>
        <path id="TimesNewRomanPSMT-35" d="M 2778 4238 
L 2534 3706 
L 1259 3706 
L 981 3138 
Q 1809 3016 2294 2522 
Q 2709 2097 2709 1522 
Q 2709 1188 2573 903 
Q 2438 619 2231 419 
Q 2025 219 1772 97 
Q 1413 -75 1034 -75 
Q 653 -75 479 54 
Q 306 184 306 341 
Q 306 428 378 495 
Q 450 563 559 563 
Q 641 563 702 538 
Q 763 513 909 409 
Q 1144 247 1384 247 
Q 1750 247 2026 523 
Q 2303 800 2303 1197 
Q 2303 1581 2056 1914 
Q 1809 2247 1375 2428 
Q 1034 2569 447 2591 
L 1259 4238 
L 2778 4238 
z
" transform="scale(0.015625)"/>
       </defs>
       <use xlink:href="#TimesNewRomanPSMT-35"/>
       <use xlink:href="#TimesNewRomanPSMT-30" x="50"/>
      </g>
     </g>
    </g>
    <g id="xtick_7">
     <g id="line2d_13">
      <path d="M 818.252273 447.64 
L 818.252273 10.8 
" clip-path="url(#pe086812dac)" style="fill: none; stroke-dasharray: 1,1.65; stroke-dashoffset: 0; stroke: #808080"/>
     </g>
     <g id="line2d_14">
      <g>
       <use xlink:href="#mb62d4d4c82" x="818.252273" y="447.64" style="stroke: #000000; stroke-width: 0.8"/>
      </g>
     </g>
     <g id="text_7">
      <!-- 60 -->
      <g transform="translate(809.252273 467.13875) scale(0.18 -0.18)">
       <defs>
        <path id="TimesNewRomanPSMT-36" d="M 2869 4325 
L 2869 4209 
Q 2456 4169 2195 4045 
Q 1934 3922 1679 3669 
Q 1425 3416 1258 3105 
Q 1091 2794 978 2366 
Q 1428 2675 1881 2675 
Q 2316 2675 2634 2325 
Q 2953 1975 2953 1425 
Q 2953 894 2631 456 
Q 2244 -75 1606 -75 
Q 1172 -75 869 213 
Q 275 772 275 1663 
Q 275 2231 503 2743 
Q 731 3256 1154 3653 
Q 1578 4050 1965 4187 
Q 2353 4325 2688 4325 
L 2869 4325 
z
M 925 2138 
Q 869 1716 869 1456 
Q 869 1156 980 804 
Q 1091 453 1309 247 
Q 1469 100 1697 100 
Q 1969 100 2183 356 
Q 2397 613 2397 1088 
Q 2397 1622 2184 2012 
Q 1972 2403 1581 2403 
Q 1463 2403 1327 2353 
Q 1191 2303 925 2138 
z
" transform="scale(0.015625)"/>
       </defs>
       <use xlink:href="#TimesNewRomanPSMT-36"/>
       <use xlink:href="#TimesNewRomanPSMT-30" x="50"/>
      </g>
     </g>
    </g>
    <g id="text_8">
     <!-- Time [second] -->
     <g transform="translate(416.860469 487.487813) scale(0.18 -0.18)">
      <defs>
       <path id="TimesNewRomanPSMT-54" d="M 3703 4238 
L 3750 3244 
L 3631 3244 
Q 3597 3506 3538 3619 
Q 3441 3800 3280 3886 
Q 3119 3972 2856 3972 
L 2259 3972 
L 2259 734 
Q 2259 344 2344 247 
Q 2463 116 2709 116 
L 2856 116 
L 2856 0 
L 1059 0 
L 1059 116 
L 1209 116 
Q 1478 116 1591 278 
Q 1659 378 1659 734 
L 1659 3972 
L 1150 3972 
Q 853 3972 728 3928 
Q 566 3869 450 3700 
Q 334 3531 313 3244 
L 194 3244 
L 244 4238 
L 3703 4238 
z
" transform="scale(0.015625)"/>
       <path id="TimesNewRomanPSMT-69" d="M 928 4444 
Q 1059 4444 1151 4351 
Q 1244 4259 1244 4128 
Q 1244 3997 1151 3903 
Q 1059 3809 928 3809 
Q 797 3809 703 3903 
Q 609 3997 609 4128 
Q 609 4259 701 4351 
Q 794 4444 928 4444 
z
M 1188 2947 
L 1188 647 
Q 1188 378 1227 289 
Q 1266 200 1342 156 
Q 1419 113 1622 113 
L 1622 0 
L 231 0 
L 231 113 
Q 441 113 512 153 
Q 584 194 626 287 
Q 669 381 669 647 
L 669 1750 
Q 669 2216 641 2353 
Q 619 2453 572 2492 
Q 525 2531 444 2531 
Q 356 2531 231 2484 
L 188 2597 
L 1050 2947 
L 1188 2947 
z
" transform="scale(0.015625)"/>
       <path id="TimesNewRomanPSMT-6d" d="M 1050 2338 
Q 1363 2650 1419 2697 
Q 1559 2816 1721 2881 
Q 1884 2947 2044 2947 
Q 2313 2947 2506 2790 
Q 2700 2634 2766 2338 
Q 3088 2713 3309 2830 
Q 3531 2947 3766 2947 
Q 3994 2947 4170 2830 
Q 4347 2713 4450 2447 
Q 4519 2266 4519 1878 
L 4519 647 
Q 4519 378 4559 278 
Q 4591 209 4675 161 
Q 4759 113 4950 113 
L 4950 0 
L 3538 0 
L 3538 113 
L 3597 113 
Q 3781 113 3884 184 
Q 3956 234 3988 344 
Q 4000 397 4000 647 
L 4000 1878 
Q 4000 2228 3916 2372 
Q 3794 2572 3525 2572 
Q 3359 2572 3192 2489 
Q 3025 2406 2788 2181 
L 2781 2147 
L 2788 2013 
L 2788 647 
Q 2788 353 2820 281 
Q 2853 209 2943 161 
Q 3034 113 3253 113 
L 3253 0 
L 1806 0 
L 1806 113 
Q 2044 113 2133 169 
Q 2222 225 2256 338 
Q 2272 391 2272 647 
L 2272 1878 
Q 2272 2228 2169 2381 
Q 2031 2581 1784 2581 
Q 1616 2581 1450 2491 
Q 1191 2353 1050 2181 
L 1050 647 
Q 1050 366 1089 281 
Q 1128 197 1204 155 
Q 1281 113 1516 113 
L 1516 0 
L 100 0 
L 100 113 
Q 297 113 375 155 
Q 453 197 493 289 
Q 534 381 534 647 
L 534 1741 
Q 534 2213 506 2350 
Q 484 2453 437 2492 
Q 391 2531 309 2531 
Q 222 2531 100 2484 
L 53 2597 
L 916 2947 
L 1050 2947 
L 1050 2338 
z
" transform="scale(0.015625)"/>
       <path id="TimesNewRomanPSMT-65" d="M 681 1784 
Q 678 1147 991 784 
Q 1303 422 1725 422 
Q 2006 422 2214 576 
Q 2422 731 2563 1106 
L 2659 1044 
Q 2594 616 2278 264 
Q 1963 -88 1488 -88 
Q 972 -88 605 314 
Q 238 716 238 1394 
Q 238 2128 614 2539 
Q 991 2950 1559 2950 
Q 2041 2950 2350 2633 
Q 2659 2316 2659 1784 
L 681 1784 
z
M 681 1966 
L 2006 1966 
Q 1991 2241 1941 2353 
Q 1863 2528 1708 2628 
Q 1553 2728 1384 2728 
Q 1125 2728 920 2526 
Q 716 2325 681 1966 
z
" transform="scale(0.015625)"/>
       <path id="TimesNewRomanPSMT-20" transform="scale(0.015625)"/>
       <path id="TimesNewRomanPSMT-5b" d="M 1900 -1269 
L 525 -1269 
L 525 4334 
L 1900 4334 
L 1900 4088 
L 994 4088 
L 994 -1025 
L 1900 -1025 
L 1900 -1269 
z
" transform="scale(0.015625)"/>
       <path id="TimesNewRomanPSMT-73" d="M 2050 2947 
L 2050 1972 
L 1947 1972 
Q 1828 2431 1642 2597 
Q 1456 2763 1169 2763 
Q 950 2763 815 2647 
Q 681 2531 681 2391 
Q 681 2216 781 2091 
Q 878 1963 1175 1819 
L 1631 1597 
Q 2266 1288 2266 781 
Q 2266 391 1970 151 
Q 1675 -88 1309 -88 
Q 1047 -88 709 6 
Q 606 38 541 38 
Q 469 38 428 -44 
L 325 -44 
L 325 978 
L 428 978 
Q 516 541 762 319 
Q 1009 97 1316 97 
Q 1531 97 1667 223 
Q 1803 350 1803 528 
Q 1803 744 1651 891 
Q 1500 1038 1047 1263 
Q 594 1488 453 1669 
Q 313 1847 313 2119 
Q 313 2472 555 2709 
Q 797 2947 1181 2947 
Q 1350 2947 1591 2875 
Q 1750 2828 1803 2828 
Q 1853 2828 1881 2850 
Q 1909 2872 1947 2947 
L 2050 2947 
z
" transform="scale(0.015625)"/>
       <path id="TimesNewRomanPSMT-63" d="M 2631 1088 
Q 2516 522 2178 217 
Q 1841 -88 1431 -88 
Q 944 -88 581 321 
Q 219 731 219 1428 
Q 219 2103 620 2525 
Q 1022 2947 1584 2947 
Q 2006 2947 2278 2723 
Q 2550 2500 2550 2259 
Q 2550 2141 2473 2067 
Q 2397 1994 2259 1994 
Q 2075 1994 1981 2113 
Q 1928 2178 1911 2362 
Q 1894 2547 1784 2644 
Q 1675 2738 1481 2738 
Q 1169 2738 978 2506 
Q 725 2200 725 1697 
Q 725 1184 976 792 
Q 1228 400 1656 400 
Q 1963 400 2206 609 
Q 2378 753 2541 1131 
L 2631 1088 
z
" transform="scale(0.015625)"/>
       <path id="TimesNewRomanPSMT-6f" d="M 1600 2947 
Q 2250 2947 2644 2453 
Q 2978 2031 2978 1484 
Q 2978 1100 2793 706 
Q 2609 313 2286 112 
Q 1963 -88 1566 -88 
Q 919 -88 538 428 
Q 216 863 216 1403 
Q 216 1797 411 2186 
Q 606 2575 925 2761 
Q 1244 2947 1600 2947 
z
M 1503 2744 
Q 1338 2744 1170 2645 
Q 1003 2547 900 2300 
Q 797 2053 797 1666 
Q 797 1041 1045 587 
Q 1294 134 1700 134 
Q 2003 134 2200 384 
Q 2397 634 2397 1244 
Q 2397 2006 2069 2444 
Q 1847 2744 1503 2744 
z
" transform="scale(0.015625)"/>
       <path id="TimesNewRomanPSMT-6e" d="M 1034 2341 
Q 1538 2947 1994 2947 
Q 2228 2947 2397 2830 
Q 2566 2713 2666 2444 
Q 2734 2256 2734 1869 
L 2734 647 
Q 2734 375 2778 278 
Q 2813 200 2889 156 
Q 2966 113 3172 113 
L 3172 0 
L 1756 0 
L 1756 113 
L 1816 113 
Q 2016 113 2095 173 
Q 2175 234 2206 353 
Q 2219 400 2219 647 
L 2219 1819 
Q 2219 2209 2117 2386 
Q 2016 2563 1775 2563 
Q 1403 2563 1034 2156 
L 1034 647 
Q 1034 356 1069 288 
Q 1113 197 1189 155 
Q 1266 113 1500 113 
L 1500 0 
L 84 0 
L 84 113 
L 147 113 
Q 366 113 442 223 
Q 519 334 519 647 
L 519 1709 
Q 519 2225 495 2337 
Q 472 2450 423 2490 
Q 375 2531 294 2531 
Q 206 2531 84 2484 
L 38 2597 
L 900 2947 
L 1034 2947 
L 1034 2341 
z
" transform="scale(0.015625)"/>
       <path id="TimesNewRomanPSMT-64" d="M 2222 322 
Q 2013 103 1813 7 
Q 1613 -88 1381 -88 
Q 913 -88 563 304 
Q 213 697 213 1313 
Q 213 1928 600 2439 
Q 988 2950 1597 2950 
Q 1975 2950 2222 2709 
L 2222 3238 
Q 2222 3728 2198 3840 
Q 2175 3953 2125 3993 
Q 2075 4034 2000 4034 
Q 1919 4034 1784 3984 
L 1744 4094 
L 2597 4444 
L 2738 4444 
L 2738 1134 
Q 2738 631 2761 520 
Q 2784 409 2836 365 
Q 2888 322 2956 322 
Q 3041 322 3181 375 
L 3216 266 
L 2366 -88 
L 2222 -88 
L 2222 322 
z
M 2222 541 
L 2222 2016 
Q 2203 2228 2109 2403 
Q 2016 2578 1861 2667 
Q 1706 2756 1559 2756 
Q 1284 2756 1069 2509 
Q 784 2184 784 1559 
Q 784 928 1059 592 
Q 1334 256 1672 256 
Q 1956 256 2222 541 
z
" transform="scale(0.015625)"/>
       <path id="TimesNewRomanPSMT-5d" d="M 234 4334 
L 1609 4334 
L 1609 -1272 
L 234 -1272 
L 234 -1025 
L 1141 -1025 
L 1141 4088 
L 234 4088 
L 234 4334 
z
" transform="scale(0.015625)"/>
      </defs>
      <use xlink:href="#TimesNewRomanPSMT-54"/>
      <use xlink:href="#TimesNewRomanPSMT-69" x="57.583984"/>
      <use xlink:href="#TimesNewRomanPSMT-6d" x="85.367188"/>
      <use xlink:href="#TimesNewRomanPSMT-65" x="163.150391"/>
      <use xlink:href="#TimesNewRomanPSMT-20" x="207.535156"/>
      <use xlink:href="#TimesNewRomanPSMT-5b" x="232.535156"/>
      <use xlink:href="#TimesNewRomanPSMT-73" x="265.835938"/>
      <use xlink:href="#TimesNewRomanPSMT-65" x="304.751953"/>
      <use xlink:href="#TimesNewRomanPSMT-63" x="349.136719"/>
      <use xlink:href="#TimesNewRomanPSMT-6f" x="393.521484"/>
      <use xlink:href="#TimesNewRomanPSMT-6e" x="443.521484"/>
      <use xlink:href="#TimesNewRomanPSMT-64" x="493.521484"/>
      <use xlink:href="#TimesNewRomanPSMT-5d" x="543.521484"/>
     </g>
    </g>
   </g>
   <g id="matplotlib.axis_2">
    <g id="ytick_1">
     <g id="line2d_15">
      <path d="M 84.35 424.164301 
L 853.2 424.164301 
" clip-path="url(#pe086812dac)" style="fill: none; stroke-dasharray: 1,1.65; stroke-dashoffset: 0; stroke: #808080"/>
     </g>
     <g id="line2d_16">
      <defs>
       <path id="m5cedf89153" d="M 0 0 
L -3.5 0 
" style="stroke: #000000; stroke-width: 0.8"/>
      </defs>
      <g>
       <use xlink:href="#m5cedf89153" x="84.35" y="424.164301" style="stroke: #000000; stroke-width: 0.8"/>
      </g>
     </g>
     <g id="text_9">
      <!-- −0.15 -->
      <g transform="translate(35.699688 430.413676) scale(0.18 -0.18)">
       <defs>
        <path id="TimesNewRomanPSMT-2212" d="M 3484 2000 
L 116 2000 
L 116 2256 
L 3484 2256 
L 3484 2000 
z
" transform="scale(0.015625)"/>
        <path id="TimesNewRomanPSMT-2e" d="M 800 606 
Q 947 606 1047 504 
Q 1147 403 1147 259 
Q 1147 116 1045 14 
Q 944 -88 800 -88 
Q 656 -88 554 14 
Q 453 116 453 259 
Q 453 406 554 506 
Q 656 606 800 606 
z
" transform="scale(0.015625)"/>
       </defs>
       <use xlink:href="#TimesNewRomanPSMT-2212"/>
       <use xlink:href="#TimesNewRomanPSMT-30" x="56.396484"/>
       <use xlink:href="#TimesNewRomanPSMT-2e" x="106.396484"/>
       <use xlink:href="#TimesNewRomanPSMT-31" x="131.396484"/>
       <use xlink:href="#TimesNewRomanPSMT-35" x="181.396484"/>
      </g>
     </g>
    </g>
    <g id="ytick_2">
     <g id="line2d_17">
      <path d="M 84.35 328.414686 
L 853.2 328.414686 
" clip-path="url(#pe086812dac)" style="fill: none; stroke-dasharray: 1,1.65; stroke-dashoffset: 0; stroke: #808080"/>
     </g>
     <g id="line2d_18">
      <g>
       <use xlink:href="#m5cedf89153" x="84.35" y="328.414686" style="stroke: #000000; stroke-width: 0.8"/>
      </g>
     </g>
     <g id="text_10">
      <!-- −0.10 -->
      <g transform="translate(35.699688 334.664061) scale(0.18 -0.18)">
       <use xlink:href="#TimesNewRomanPSMT-2212"/>
       <use xlink:href="#TimesNewRomanPSMT-30" x="56.396484"/>
       <use xlink:href="#TimesNewRomanPSMT-2e" x="106.396484"/>
       <use xlink:href="#TimesNewRomanPSMT-31" x="131.396484"/>
       <use xlink:href="#TimesNewRomanPSMT-30" x="181.396484"/>
      </g>
     </g>
    </g>
    <g id="ytick_3">
     <g id="line2d_19">
      <path d="M 84.35 232.665071 
L 853.2 232.665071 
" clip-path="url(#pe086812dac)" style="fill: none; stroke-dasharray: 1,1.65; stroke-dashoffset: 0; stroke: #808080"/>
     </g>
     <g id="line2d_20">
      <g>
       <use xlink:href="#m5cedf89153" x="84.35" y="232.665071" style="stroke: #000000; stroke-width: 0.8"/>
      </g>
     </g>
     <g id="text_11">
      <!-- −0.05 -->
      <g transform="translate(35.699688 238.914446) scale(0.18 -0.18)">
       <use xlink:href="#TimesNewRomanPSMT-2212"/>
       <use xlink:href="#TimesNewRomanPSMT-30" x="56.396484"/>
       <use xlink:href="#TimesNewRomanPSMT-2e" x="106.396484"/>
       <use xlink:href="#TimesNewRomanPSMT-30" x="131.396484"/>
       <use xlink:href="#TimesNewRomanPSMT-35" x="181.396484"/>
      </g>
     </g>
    </g>
    <g id="ytick_4">
     <g id="line2d_21">
      <path d="M 84.35 136.915456 
L 853.2 136.915456 
" clip-path="url(#pe086812dac)" style="fill: none; stroke-dasharray: 1,1.65; stroke-dashoffset: 0; stroke: #808080"/>
     </g>
     <g id="line2d_22">
      <g>
       <use xlink:href="#m5cedf89153" x="84.35" y="136.915456" style="stroke: #000000; stroke-width: 0.8"/>
      </g>
     </g>
     <g id="text_12">
      <!-- 0.00 -->
      <g transform="translate(45.85 143.164831) scale(0.18 -0.18)">
       <use xlink:href="#TimesNewRomanPSMT-30"/>
       <use xlink:href="#TimesNewRomanPSMT-2e" x="50"/>
       <use xlink:href="#TimesNewRomanPSMT-30" x="75"/>
       <use xlink:href="#TimesNewRomanPSMT-30" x="125"/>
      </g>
     </g>
    </g>
    <g id="ytick_5">
     <g id="line2d_23">
      <path d="M 84.35 41.165841 
L 853.2 41.165841 
" clip-path="url(#pe086812dac)" style="fill: none; stroke-dasharray: 1,1.65; stroke-dashoffset: 0; stroke: #808080"/>
     </g>
     <g id="line2d_24">
      <g>
       <use xlink:href="#m5cedf89153" x="84.35" y="41.165841" style="stroke: #000000; stroke-width: 0.8"/>
      </g>
     </g>
     <g id="text_13">
      <!-- 0.05 -->
      <g transform="translate(45.85 47.415216) scale(0.18 -0.18)">
       <use xlink:href="#TimesNewRomanPSMT-30"/>
       <use xlink:href="#TimesNewRomanPSMT-2e" x="50"/>
       <use xlink:href="#TimesNewRomanPSMT-30" x="75"/>
       <use xlink:href="#TimesNewRomanPSMT-35" x="125"/>
      </g>
     </g>
    </g>
    <g id="text_14">
     <!-- RW Speed ($\omega$)\ [radian/second] -->
     <g transform="translate(27.739688 343.16) rotate(-90) scale(0.18 -0.18)">
      <defs>
       <path id="TimesNewRomanPSMT-52" d="M 4325 0 
L 3194 0 
L 1759 1981 
Q 1600 1975 1500 1975 
Q 1459 1975 1412 1976 
Q 1366 1978 1316 1981 
L 1316 750 
Q 1316 350 1403 253 
Q 1522 116 1759 116 
L 1925 116 
L 1925 0 
L 109 0 
L 109 116 
L 269 116 
Q 538 116 653 291 
Q 719 388 719 750 
L 719 3488 
Q 719 3888 631 3984 
Q 509 4122 269 4122 
L 109 4122 
L 109 4238 
L 1653 4238 
Q 2328 4238 2648 4139 
Q 2969 4041 3192 3777 
Q 3416 3513 3416 3147 
Q 3416 2756 3161 2468 
Q 2906 2181 2372 2063 
L 3247 847 
Q 3547 428 3762 290 
Q 3978 153 4325 116 
L 4325 0 
z
M 1316 2178 
Q 1375 2178 1419 2176 
Q 1463 2175 1491 2175 
Q 2097 2175 2405 2437 
Q 2713 2700 2713 3106 
Q 2713 3503 2464 3751 
Q 2216 4000 1806 4000 
Q 1625 4000 1316 3941 
L 1316 2178 
z
" transform="scale(0.015625)"/>
       <path id="TimesNewRomanPSMT-57" d="M 5991 4238 
L 5991 4122 
Q 5825 4122 5722 4062 
Q 5619 4003 5525 3841 
Q 5463 3731 5328 3319 
L 4147 -97 
L 4022 -97 
L 3056 2613 
L 2097 -97 
L 1984 -97 
L 725 3422 
Q 584 3816 547 3888 
Q 484 4006 376 4064 
Q 269 4122 84 4122 
L 84 4238 
L 1653 4238 
L 1653 4122 
L 1578 4122 
Q 1413 4122 1325 4047 
Q 1238 3972 1238 3866 
Q 1238 3756 1375 3363 
L 2209 984 
L 2913 3006 
L 2788 3363 
L 2688 3647 
Q 2622 3803 2541 3922 
Q 2500 3981 2441 4022 
Q 2363 4078 2284 4103 
Q 2225 4122 2097 4122 
L 2097 4238 
L 3747 4238 
L 3747 4122 
L 3634 4122 
Q 3459 4122 3378 4047 
Q 3297 3972 3297 3844 
Q 3297 3684 3438 3288 
L 4250 984 
L 5056 3319 
Q 5194 3706 5194 3856 
Q 5194 3928 5148 3990 
Q 5103 4053 5034 4078 
Q 4916 4122 4725 4122 
L 4725 4238 
L 5991 4238 
z
" transform="scale(0.015625)"/>
       <path id="TimesNewRomanPSMT-53" d="M 2934 4334 
L 2934 2869 
L 2819 2869 
Q 2763 3291 2617 3541 
Q 2472 3791 2203 3937 
Q 1934 4084 1647 4084 
Q 1322 4084 1109 3886 
Q 897 3688 897 3434 
Q 897 3241 1031 3081 
Q 1225 2847 1953 2456 
Q 2547 2138 2764 1967 
Q 2981 1797 3098 1565 
Q 3216 1334 3216 1081 
Q 3216 600 2842 251 
Q 2469 -97 1881 -97 
Q 1697 -97 1534 -69 
Q 1438 -53 1133 45 
Q 828 144 747 144 
Q 669 144 623 97 
Q 578 50 556 -97 
L 441 -97 
L 441 1356 
L 556 1356 
Q 638 900 775 673 
Q 913 447 1195 297 
Q 1478 147 1816 147 
Q 2206 147 2432 353 
Q 2659 559 2659 841 
Q 2659 997 2573 1156 
Q 2488 1316 2306 1453 
Q 2184 1547 1640 1851 
Q 1097 2156 867 2337 
Q 638 2519 519 2737 
Q 400 2956 400 3219 
Q 400 3675 750 4004 
Q 1100 4334 1641 4334 
Q 1978 4334 2356 4169 
Q 2531 4091 2603 4091 
Q 2684 4091 2736 4139 
Q 2788 4188 2819 4334 
L 2934 4334 
z
" transform="scale(0.015625)"/>
       <path id="TimesNewRomanPSMT-70" d="M -6 2578 
L 875 2934 
L 994 2934 
L 994 2266 
Q 1216 2644 1439 2795 
Q 1663 2947 1909 2947 
Q 2341 2947 2628 2609 
Q 2981 2197 2981 1534 
Q 2981 794 2556 309 
Q 2206 -88 1675 -88 
Q 1444 -88 1275 -22 
Q 1150 25 994 166 
L 994 -706 
Q 994 -1000 1030 -1079 
Q 1066 -1159 1155 -1206 
Q 1244 -1253 1478 -1253 
L 1478 -1369 
L -22 -1369 
L -22 -1253 
L 56 -1253 
Q 228 -1256 350 -1188 
Q 409 -1153 442 -1076 
Q 475 -1000 475 -688 
L 475 2019 
Q 475 2297 450 2372 
Q 425 2447 370 2484 
Q 316 2522 222 2522 
Q 147 2522 31 2478 
L -6 2578 
z
M 994 2081 
L 994 1013 
Q 994 666 1022 556 
Q 1066 375 1236 237 
Q 1406 100 1666 100 
Q 1978 100 2172 344 
Q 2425 663 2425 1241 
Q 2425 1897 2138 2250 
Q 1938 2494 1663 2494 
Q 1513 2494 1366 2419 
Q 1253 2363 994 2081 
z
" transform="scale(0.015625)"/>
       <path id="TimesNewRomanPSMT-28" d="M 1988 -1253 
L 1988 -1369 
Q 1516 -1131 1200 -813 
Q 750 -359 506 256 
Q 263 872 263 1534 
Q 263 2503 741 3301 
Q 1219 4100 1988 4444 
L 1988 4313 
Q 1603 4100 1356 3731 
Q 1109 3363 987 2797 
Q 866 2231 866 1616 
Q 866 947 969 400 
Q 1050 -31 1165 -292 
Q 1281 -553 1476 -793 
Q 1672 -1034 1988 -1253 
z
" transform="scale(0.015625)"/>
       <path id="STIXGeneral-Italic-3c9" d="M 3021 2810 
L 3136 2810 
Q 3648 2810 3898 2598 
Q 4186 2355 4186 1824 
Q 4186 1357 3910 838 
Q 3667 390 3334 160 
Q 3002 -70 2669 -70 
Q 2438 -70 2281 3 
Q 2125 77 2064 160 
Q 2003 243 1939 384 
Q 1741 147 1533 38 
Q 1325 -70 998 -70 
Q 659 -70 416 160 
Q 173 390 173 832 
Q 173 1101 237 1350 
Q 403 1965 883 2387 
Q 1363 2810 2010 2810 
L 2125 2810 
L 2125 2707 
Q 1606 2707 1267 2291 
Q 1024 1990 867 1526 
Q 710 1062 710 666 
Q 710 64 1075 64 
Q 1286 64 1523 285 
Q 1760 506 1856 774 
Q 1837 915 1837 1101 
Q 1837 1363 1914 1651 
Q 1984 1920 2125 2105 
Q 2266 2291 2432 2291 
Q 2656 2291 2656 1997 
Q 2656 1530 2387 1062 
Q 2272 864 2189 736 
Q 2176 691 2176 602 
Q 2176 384 2288 224 
Q 2400 64 2592 64 
Q 3040 64 3341 627 
Q 3482 896 3565 1270 
Q 3648 1645 3648 1971 
Q 3648 2240 3616 2362 
Q 3565 2566 3411 2636 
Q 3258 2707 3021 2707 
L 3021 2810 
z
" transform="scale(0.015625)"/>
       <path id="TimesNewRomanPSMT-29" d="M 144 4313 
L 144 4444 
Q 619 4209 934 3891 
Q 1381 3434 1625 2820 
Q 1869 2206 1869 1541 
Q 1869 572 1392 -226 
Q 916 -1025 144 -1369 
L 144 -1253 
Q 528 -1038 776 -670 
Q 1025 -303 1145 264 
Q 1266 831 1266 1447 
Q 1266 2113 1163 2663 
Q 1084 3094 967 3353 
Q 850 3613 656 3853 
Q 463 4094 144 4313 
z
" transform="scale(0.015625)"/>
       <path id="TimesNewRomanPSMT-5c" d="M 259 4444 
L 1791 -88 
L 1541 -88 
L 9 4444 
L 259 4444 
z
" transform="scale(0.015625)"/>
       <path id="TimesNewRomanPSMT-72" d="M 1038 2947 
L 1038 2303 
Q 1397 2947 1775 2947 
Q 1947 2947 2059 2842 
Q 2172 2738 2172 2600 
Q 2172 2478 2090 2393 
Q 2009 2309 1897 2309 
Q 1788 2309 1652 2417 
Q 1516 2525 1450 2525 
Q 1394 2525 1328 2463 
Q 1188 2334 1038 2041 
L 1038 669 
Q 1038 431 1097 309 
Q 1138 225 1241 169 
Q 1344 113 1538 113 
L 1538 0 
L 72 0 
L 72 113 
Q 291 113 397 181 
Q 475 231 506 341 
Q 522 394 522 644 
L 522 1753 
Q 522 2253 501 2348 
Q 481 2444 426 2487 
Q 372 2531 291 2531 
Q 194 2531 72 2484 
L 41 2597 
L 906 2947 
L 1038 2947 
z
" transform="scale(0.015625)"/>
       <path id="TimesNewRomanPSMT-61" d="M 1822 413 
Q 1381 72 1269 19 
Q 1100 -59 909 -59 
Q 613 -59 420 144 
Q 228 347 228 678 
Q 228 888 322 1041 
Q 450 1253 767 1440 
Q 1084 1628 1822 1897 
L 1822 2009 
Q 1822 2438 1686 2597 
Q 1550 2756 1291 2756 
Q 1094 2756 978 2650 
Q 859 2544 859 2406 
L 866 2225 
Q 866 2081 792 2003 
Q 719 1925 600 1925 
Q 484 1925 411 2006 
Q 338 2088 338 2228 
Q 338 2497 613 2722 
Q 888 2947 1384 2947 
Q 1766 2947 2009 2819 
Q 2194 2722 2281 2516 
Q 2338 2381 2338 1966 
L 2338 994 
Q 2338 584 2353 492 
Q 2369 400 2405 369 
Q 2441 338 2488 338 
Q 2538 338 2575 359 
Q 2641 400 2828 588 
L 2828 413 
Q 2478 -56 2159 -56 
Q 2006 -56 1915 50 
Q 1825 156 1822 413 
z
M 1822 616 
L 1822 1706 
Q 1350 1519 1213 1441 
Q 966 1303 859 1153 
Q 753 1003 753 825 
Q 753 600 887 451 
Q 1022 303 1197 303 
Q 1434 303 1822 616 
z
" transform="scale(0.015625)"/>
       <path id="TimesNewRomanPSMT-2f" d="M 1794 4444 
L 259 -88 
L 9 -88 
L 1544 4444 
L 1794 4444 
z
" transform="scale(0.015625)"/>
      </defs>
      <use xlink:href="#TimesNewRomanPSMT-52" transform="translate(0 0.5625)"/>
      <use xlink:href="#TimesNewRomanPSMT-57" transform="translate(66.699219 0.5625)"/>
      <use xlink:href="#TimesNewRomanPSMT-20" transform="translate(161.083984 0.5625)"/>
      <use xlink:href="#TimesNewRomanPSMT-53" transform="translate(186.083984 0.5625)"/>
      <use xlink:href="#TimesNewRomanPSMT-70" transform="translate(241.699219 0.5625)"/>
      <use xlink:href="#TimesNewRomanPSMT-65" transform="translate(291.699219 0.5625)"/>
      <use xlink:href="#TimesNewRomanPSMT-65" transform="translate(336.083984 0.5625)"/>
      <use xlink:href="#TimesNewRomanPSMT-64" transform="translate(380.46875 0.5625)"/>
      <use xlink:href="#TimesNewRomanPSMT-20" transform="translate(430.46875 0.5625)"/>
      <use xlink:href="#TimesNewRomanPSMT-28" transform="translate(455.46875 0.5625)"/>
      <use xlink:href="#STIXGeneral-Italic-3c9" transform="translate(488.769531 0.5625)"/>
      <use xlink:href="#TimesNewRomanPSMT-29" transform="translate(557.369522 0.5625)"/>
      <use xlink:href="#TimesNewRomanPSMT-5c" transform="translate(590.670303 0.5625)"/>
      <use xlink:href="#TimesNewRomanPSMT-20" transform="translate(618.453506 0.5625)"/>
      <use xlink:href="#TimesNewRomanPSMT-5b" transform="translate(643.453506 0.5625)"/>
      <use xlink:href="#TimesNewRomanPSMT-72" transform="translate(676.754288 0.5625)"/>
      <use xlink:href="#TimesNewRomanPSMT-61" transform="translate(710.055069 0.5625)"/>
      <use xlink:href="#TimesNewRomanPSMT-64" transform="translate(754.439835 0.5625)"/>
      <use xlink:href="#TimesNewRomanPSMT-69" transform="translate(804.439835 0.5625)"/>
      <use xlink:href="#TimesNewRomanPSMT-61" transform="translate(832.223038 0.5625)"/>
      <use xlink:href="#TimesNewRomanPSMT-6e" transform="translate(876.607803 0.5625)"/>
      <use xlink:href="#TimesNewRomanPSMT-2f" transform="translate(926.607803 0.5625)"/>
      <use xlink:href="#TimesNewRomanPSMT-73" transform="translate(954.391006 0.5625)"/>
      <use xlink:href="#TimesNewRomanPSMT-65" transform="translate(993.307022 0.5625)"/>
      <use xlink:href="#TimesNewRomanPSMT-63" transform="translate(1037.691788 0.5625)"/>
      <use xlink:href="#TimesNewRomanPSMT-6f" transform="translate(1082.076553 0.5625)"/>
      <use xlink:href="#TimesNewRomanPSMT-6e" transform="translate(1132.076553 0.5625)"/>
      <use xlink:href="#TimesNewRomanPSMT-64" transform="translate(1182.076553 0.5625)"/>
      <use xlink:href="#TimesNewRomanPSMT-5d" transform="translate(1232.076553 0.5625)"/>
     </g>
    </g>
   </g>
   <g id="line2d_25">
    <path d="M 119.297727 136.915456 
L 120.462652 166.142069 
L 121.627576 141.989037 
L 122.7925 147.254308 
L 123.957424 138.092047 
L 125.122348 155.513861 
L 126.287273 148.542715 
L 127.452197 146.641702 
L 128.617121 157.08607 
L 129.782045 169.608205 
L 130.94697 167.007645 
L 132.111894 156.814141 
L 133.276818 167.536183 
L 134.441742 171.255098 
L 135.606667 156.118999 
L 136.771591 184.53557 
L 137.936515 191.626786 
L 139.101439 172.185784 
L 140.266364 165.613531 
L 141.431288 198.235425 
L 142.596212 182.773777 
L 143.761136 205.075777 
L 144.926061 196.808755 
L 146.090985 202.971201 
L 147.255909 193.652848 
L 148.420833 222.492632 
L 149.585758 215.786329 
L 150.750682 224.782963 
L 151.915606 201.081103 
L 153.08053 211.167368 
L 154.245455 223.785252 
L 155.410379 219.442049 
L 156.575303 214.292635 
L 157.740227 219.989737 
L 158.905152 233.995991 
L 160.070076 256.301821 
L 161.235 246.904954 
L 162.399924 213.978576 
L 163.564848 220.181236 
L 164.729773 251.190707 
L 165.894697 257.967864 
L 167.059621 251.673285 
L 168.224545 249.243159 
L 169.38947 269.679957 
L 170.554394 277.916339 
L 171.719318 260.403735 
L 172.884242 261.596775 
L 174.049167 265.375055 
L 175.214091 271.148756 
L 176.379015 267.048758 
L 177.543939 287.71344 
L 178.708864 279.214704 
L 179.873788 285.719933 
L 181.038712 289.542257 
L 182.203636 291.30022 
L 183.368561 294.695502 
L 184.533485 289.722267 
L 185.698409 298.132913 
L 186.863333 276.44754 
L 188.028258 286.319325 
L 189.193182 294.264628 
L 190.358106 304.494517 
L 191.52303 290.1225 
L 192.687955 308.650051 
L 193.852879 308.615581 
L 195.017803 322.315436 
L 196.182727 327.709969 
L 197.347652 327.650604 
L 198.512576 338.276896 
L 200.842424 323.73253 
L 202.007348 322.506935 
L 203.172273 322.399695 
L 204.337197 339.84719 
L 205.502121 335.251209 
L 206.667045 352.964887 
L 207.83197 352.29464 
L 208.996894 357.388519 
L 210.161818 361.524903 
L 211.326742 352.830838 
L 212.491667 365.757036 
L 213.656591 358.499215 
L 214.821515 371.980761 
L 215.986439 365.891085 
L 217.151364 370.506217 
L 218.316288 359.265212 
L 219.481212 362.15685 
L 220.646136 371.406263 
L 221.811061 358.058767 
L 224.140909 400.226897 
L 225.305833 394.232971 
L 226.470758 394.252121 
L 227.635682 372.842507 
L 228.800606 393.926573 
L 229.96553 387.664548 
L 231.130455 404.018582 
L 232.295379 396.530962 
L 233.460303 402.352539 
L 234.625227 403.022786 
L 235.790152 395.056418 
L 236.955076 404.095182 
L 238.12 404.324981 
L 239.284924 400.763095 
L 240.449848 404.267531 
L 241.614773 411.448752 
L 242.779697 397.641658 
L 243.944621 385.538906 
L 245.109545 405.473976 
L 246.27447 404.210081 
L 247.439394 397.660808 
L 249.769242 414.34039 
L 250.934167 393.294625 
L 252.099091 404.707979 
L 253.264015 401.758891 
L 254.428939 411.467902 
L 255.593864 405.665475 
L 256.758788 400.801395 
L 257.923712 415.987284 
L 259.088636 409.955058 
L 260.253561 404.727129 
L 261.418485 420.372616 
L 262.583409 408.518814 
L 263.748333 421.368412 
L 264.913258 420.640715 
L 266.078182 410.491256 
L 267.243106 394.826619 
L 268.40803 411.046604 
L 269.572955 404.133481 
L 270.737879 415.182987 
L 271.902803 424.815398 
L 273.067727 404.344131 
L 274.232652 427.783636 
L 275.397576 422.402508 
L 276.5625 415.087237 
L 277.727424 410.280607 
L 278.892348 421.272663 
L 280.057273 411.238103 
L 281.222197 403.214285 
L 282.387121 397.679957 
L 283.552045 402.678087 
L 284.71697 361.831302 
L 287.046818 392.796727 
L 288.211742 389.081642 
L 289.376667 371.233914 
L 290.541591 369.855119 
L 291.706515 359.533311 
L 292.871439 387.0709 
L 294.036364 358.843914 
L 295.201288 353.692584 
L 296.366212 353.711734 
L 297.531136 358.326866 
L 298.696061 335.959756 
L 299.860985 330.253079 
L 301.025909 330.999926 
L 302.190833 325.963496 
L 303.355758 326.555229 
L 304.520682 315.337204 
L 305.685606 316.16831 
L 306.85053 318.856959 
L 308.015455 316.907497 
L 309.180379 288.328152 
L 310.345303 305.01348 
L 311.510227 297.895454 
L 312.675152 303.918105 
L 313.840076 273.956135 
L 315.005 268.854596 
L 316.169924 271.54899 
L 317.334848 276.734789 
L 318.499773 264.637783 
L 319.664697 271.824749 
L 320.829621 258.798971 
L 321.994545 268.251373 
L 323.15947 257.301447 
L 324.324394 253.247408 
L 325.489318 250.27534 
L 326.654242 254.028725 
L 327.819167 239.474784 
L 328.984091 231.912479 
L 330.149015 246.219387 
L 331.313939 221.249802 
L 332.478864 227.350968 
L 333.643788 216.552326 
L 334.808712 219.556949 
L 335.973636 220.3938 
L 337.138561 229.842372 
L 338.303485 223.388848 
L 339.468409 205.673255 
L 340.633333 193.643273 
L 341.798258 196.582786 
L 342.963182 186.469712 
L 344.128106 183.691058 
L 345.29303 173.897788 
L 346.457955 186.961865 
L 347.622879 183.790638 
L 348.787803 154.895702 
L 349.952727 174.878264 
L 351.117652 170.525486 
L 352.282576 156.105594 
L 353.4475 169.087327 
L 354.612424 168.964767 
L 355.777348 162.804237 
L 356.942273 144.934295 
L 358.107197 148.974929 
L 359.272121 156.726052 
L 360.437045 128.359079 
L 361.60197 143.636313 
L 362.766894 131.659185 
L 363.931818 137.053144 
L 365.096742 139.649299 
L 366.261667 136.238698 
L 367.426591 138.89958 
L 368.591515 140.314568 
L 369.756439 125.482569 
L 370.921364 134.691576 
L 372.086288 130.239219 
L 373.251212 130.618962 
L 374.416136 128.090789 
L 375.581061 115.666702 
L 376.745985 124.380491 
L 377.910909 125.490038 
L 379.075833 119.949582 
L 380.240758 106.07259 
L 381.405682 117.614249 
L 382.570606 99.121168 
L 383.73553 111.507338 
L 384.900455 95.561198 
L 386.065379 112.803788 
L 387.230303 127.741303 
L 388.395227 118.631876 
L 389.560152 102.836253 
L 390.725076 100.325698 
L 391.89 118.598555 
L 393.054924 97.451295 
L 394.219848 106.993702 
L 395.384773 105.415748 
L 396.549697 104.220793 
L 397.714621 82.719259 
L 398.879545 99.498422 
L 400.04447 94.048354 
L 401.209394 101.499589 
L 402.374318 103.688425 
L 403.539242 107.648629 
L 404.704167 105.448303 
L 405.869091 76.740653 
L 407.034015 76.37872 
L 408.198939 95.505663 
L 409.363864 95.402253 
L 410.528788 70.553313 
L 411.693712 81.710058 
L 412.858636 61.024311 
L 414.023561 79.959755 
L 415.188485 74.120944 
L 416.353409 83.558026 
L 417.518333 85.09002 
L 418.683258 77.50282 
L 419.848182 83.004593 
L 421.013106 79.779746 
L 422.17803 59.365928 
L 423.342955 64.555557 
L 424.507879 63.90446 
L 425.672803 73.91221 
L 426.837727 62.899089 
L 428.002652 71.44187 
L 429.167576 54.316093 
L 430.3325 42.201852 
L 431.497424 52.964109 
L 432.662348 32.76477 
L 433.827273 61.286665 
L 434.992197 59.457848 
L 436.157121 54.955701 
L 437.322045 41.382235 
L 438.48697 48.574947 
L 439.651894 46.665699 
L 440.816818 39.949821 
L 441.981742 40.683263 
L 443.146667 30.656364 
L 444.311591 33.300968 
L 445.476515 39.591718 
L 446.641439 50.12992 
L 447.806364 47.630855 
L 448.971288 73.404737 
L 450.136212 33.339268 
L 451.301136 55.19699 
L 452.466061 50.426744 
L 453.630985 61.616044 
L 454.795909 60.899837 
L 455.960833 50.717823 
L 457.125758 58.144163 
L 458.290682 58.502267 
L 459.455606 52.818569 
L 460.62053 60.036175 
L 461.785455 64.565132 
L 462.950379 54.419503 
L 464.115303 71.838273 
L 465.280227 61.344115 
L 466.445152 63.84701 
L 467.610076 65.237295 
L 468.775 66.820993 
L 469.939924 59.386993 
L 471.104848 72.362981 
L 472.269773 69.99988 
L 473.434697 72.830239 
L 474.599621 85.287264 
L 475.764545 79.628462 
L 476.92947 90.947981 
L 478.094394 69.184094 
L 479.259318 71.765503 
L 480.424242 66.708009 
L 481.589167 92.4704 
L 482.754091 88.805105 
L 483.919015 90.181984 
L 485.083939 86.999267 
L 486.248864 84.957885 
L 487.413788 81.445789 
L 488.578712 84.381473 
L 489.743636 89.731961 
L 490.908561 88.477641 
L 492.073485 85.871337 
L 493.238409 98.175162 
L 494.403333 101.518739 
L 496.733182 77.47601 
L 497.898106 109.439147 
L 499.06303 94.672641 
L 500.227955 92.047187 
L 501.392879 103.020093 
L 502.557803 98.814769 
L 503.722727 92.48572 
L 504.887652 120.727452 
L 506.052576 98.391556 
L 507.2175 91.005431 
L 508.382424 116.574408 
L 509.547348 113.985338 
L 510.712273 116.616538 
L 513.042121 133.870619 
L 514.207045 123.381248 
L 515.37197 129.260083 
L 516.536894 128.485852 
L 517.701818 123.465891 
L 518.866742 129.638294 
L 520.031667 141.6407 
L 521.196591 155.416197 
L 522.361515 141.442115 
L 523.526439 158.595084 
L 524.691364 138.16045 
L 525.856288 150.820215 
L 527.021212 153.12376 
L 528.186136 143.514711 
L 529.351061 148.26236 
L 530.515985 144.503422 
L 531.680909 133.700759 
L 532.845833 161.350758 
L 534.010758 161.754821 
L 536.340606 179.711704 
L 537.50553 156.410078 
L 538.670455 169.901199 
L 539.835379 177.882886 
L 541.000303 169.064347 
L 542.165227 173.757993 
L 543.330152 194.185216 
L 544.495076 159.933664 
L 545.66 174.359301 
L 546.824924 169.374576 
L 547.989848 183.750423 
L 549.154773 191.856585 
L 550.319697 179.367006 
L 551.484621 198.823327 
L 552.649545 185.311142 
L 553.81447 176.722401 
L 554.979394 192.547897 
L 556.144318 168.899658 
L 557.309242 200.709595 
L 558.474167 199.321225 
L 559.639091 176.448557 
L 560.804015 185.67882 
L 561.968939 189.905208 
L 563.133864 157.465239 
L 564.298788 179.485735 
L 565.463712 168.939872 
L 566.628636 174.261636 
L 567.793561 174.430155 
L 568.958485 156.122829 
L 570.123409 187.06719 
L 571.288333 173.836508 
L 572.453258 140.330462 
L 573.618182 171.881301 
L 574.783106 159.412786 
L 575.94803 169.757574 
L 577.112955 144.551871 
L 578.277879 153.153442 
L 579.442803 158.962763 
L 580.607727 180.466211 
L 581.772652 127.405605 
L 582.937576 168.643049 
L 584.1025 139.623255 
L 585.267424 135.648612 
L 586.432348 167.312129 
L 587.597273 160.630721 
L 588.762197 162.984246 
L 589.927121 137.407935 
L 591.092045 146.279003 
L 592.25697 149.08619 
L 593.421894 150.471878 
L 594.586818 143.405557 
L 595.751742 135.31234 
L 596.916667 125.557637 
L 598.081591 165.856735 
L 599.246515 136.007118 
L 600.411439 152.820808 
L 601.576364 153.219701 
L 602.741288 126.0766 
L 603.906212 132.711091 
L 605.071136 137.564466 
L 606.236061 146.394668 
L 607.400985 126.214862 
L 608.565909 145.53273 
L 609.730833 147.566452 
L 610.895758 166.220583 
L 612.060682 137.017717 
L 613.225606 146.41018 
L 614.39053 122.133056 
L 615.555455 132.830969 
L 616.720379 138.07349 
L 617.885303 138.974647 
L 619.050227 132.962338 
L 620.215152 136.586978 
L 621.380076 142.633815 
L 622.545 144.420694 
L 623.709924 131.872133 
L 624.874848 142.792185 
L 626.039773 143.580587 
L 627.204697 150.031813 
L 628.369621 143.925477 
L 629.534545 142.194516 
L 630.69947 141.661765 
L 631.864394 142.733203 
L 633.029318 133.155177 
L 634.194242 124.724998 
L 635.359167 146.308493 
L 636.524091 131.41196 
L 637.689015 136.857049 
L 638.853939 145.309633 
L 640.018864 136.677978 
L 641.183788 143.583842 
L 642.348712 139.214596 
L 643.513636 143.852899 
L 644.678561 153.207445 
L 645.843485 134.776027 
L 647.008409 129.863689 
L 648.173333 115.611167 
L 649.338258 141.036711 
L 650.503182 139.663662 
L 651.668106 158.533804 
L 652.83303 143.174609 
L 653.997955 130.125277 
L 656.327803 149.704541 
L 657.492727 125.913826 
L 658.657652 118.738541 
L 659.822576 134.0828 
L 660.9875 150.950818 
L 662.152424 134.576676 
L 663.317348 142.591493 
L 664.482273 126.197244 
L 665.647197 134.396667 
L 666.812121 138.024677 
L 667.977045 161.140109 
L 669.14197 120.142996 
L 670.306894 140.225903 
L 671.471818 142.083063 
L 672.636742 134.303981 
L 673.801667 130.727925 
L 674.966591 133.726611 
L 676.131515 151.652088 
L 677.296439 146.694939 
L 678.461364 156.488593 
L 679.626288 147.392379 
L 680.791212 137.185738 
L 681.956136 125.451163 
L 683.121061 125.177319 
L 684.285985 125.428758 
L 685.450909 138.02573 
L 686.615833 137.138285 
L 687.780758 134.16591 
L 688.945682 138.819418 
L 690.110606 138.848641 
L 691.27553 140.887533 
L 693.605379 118.815332 
L 694.770303 129.741704 
L 695.935227 126.872088 
L 697.100152 117.432325 
L 698.265076 134.118036 
L 700.594924 126.802573 
L 701.759848 118.340031 
L 702.924773 133.253416 
L 704.089697 130.440484 
L 705.254621 132.951997 
L 706.419545 147.199731 
L 707.58447 138.752853 
L 708.749394 142.111788 
L 709.914318 120.78854 
L 711.079242 146.335495 
L 712.244167 149.862145 
L 713.409091 132.058461 
L 714.574015 142.950746 
L 715.738939 139.538613 
L 716.903864 124.468772 
L 718.068788 138.27648 
L 719.233712 142.231475 
L 720.398636 144.716752 
L 721.563561 144.619279 
L 722.728485 130.168364 
L 723.893409 137.871765 
L 725.058333 138.66327 
L 726.223258 149.33533 
L 727.388182 134.808007 
L 728.553106 138.193809 
L 729.71803 140.896342 
L 730.882955 142.243348 
L 732.047879 129.273488 
L 733.212803 148.662402 
L 734.377727 126.024129 
L 735.542652 135.766059 
L 736.707576 135.185261 
L 737.8725 146.36173 
L 739.037424 140.475044 
L 740.202348 135.465788 
L 742.532197 148.444093 
L 743.697121 135.460694 
L 744.862045 149.813121 
L 746.02697 129.121629 
L 747.191894 135.18099 
L 748.356818 128.142877 
L 749.521742 126.829575 
L 750.686667 141.565058 
L 751.851591 130.840526 
L 753.016515 138.362022 
L 754.181439 144.163319 
L 755.346364 138.232971 
L 756.511288 138.915857 
L 757.676212 127.909822 
L 758.841136 141.342152 
L 760.006061 125.815012 
L 761.170985 128.359845 
L 762.335909 158.834458 
L 763.500833 128.916725 
L 764.665758 128.118748 
L 765.830682 121.639563 
L 766.995606 126.533517 
L 768.16053 129.907925 
L 769.325455 148.973205 
L 770.490379 144.535019 
L 771.655303 154.087575 
L 772.820227 136.990715 
L 773.985152 142.252731 
L 775.150076 132.259727 
L 776.315 123.498829 
L 777.479924 145.360764 
L 778.644848 131.307401 
L 779.809773 135.737851 
L 780.974697 147.734014 
L 782.139621 136.634738 
L 783.304545 140.277991 
L 784.46947 159.604285 
L 786.799318 115.475202 
L 787.964242 136.920761 
L 789.129167 136.039864 
L 790.294091 135.869794 
L 791.459015 135.23348 
L 792.623939 133.295546 
L 793.788864 137.082061 
L 794.953788 142.427379 
L 796.118712 126.184605 
L 797.283636 136.400668 
L 798.448561 129.033922 
L 799.613485 136.581309 
L 800.778409 141.781452 
L 801.943333 125.926273 
L 803.108258 136.023529 
L 804.273182 127.004414 
L 805.438106 152.712036 
L 806.60303 141.786431 
L 807.767955 135.112165 
L 808.932879 139.798669 
L 810.097803 138.507313 
L 811.262727 130.15764 
L 812.427652 131.786532 
L 813.592576 140.086301 
L 814.7575 143.404791 
L 815.922424 143.73934 
L 817.087348 129.38992 
L 818.252273 125.936231 
L 818.252273 125.936231 
" clip-path="url(#pe086812dac)" style="fill: none; stroke: #000000; stroke-width: 1.5; stroke-linecap: square"/>
   </g>
   <g id="patch_4">
    <path d="M 84.35 447.64 
L 84.35 10.8 
" style="fill: none; stroke: #000000; stroke-width: 0.8; stroke-linejoin: miter; stroke-linecap: square"/>
   </g>
   <g id="patch_5">
    <path d="M 853.2 447.64 
L 853.2 10.8 
" style="fill: none; stroke: #000000; stroke-width: 0.8; stroke-linejoin: miter; stroke-linecap: square"/>
   </g>
   <g id="patch_6">
    <path d="M 84.35 447.64 
L 853.2 447.64 
" style="fill: none; stroke: #000000; stroke-width: 0.8; stroke-linejoin: miter; stroke-linecap: square"/>
   </g>
   <g id="patch_7">
    <path d="M 84.35 10.8 
L 853.2 10.8 
" style="fill: none; stroke: #000000; stroke-width: 0.8; stroke-linejoin: miter; stroke-linecap: square"/>
   </g>
   <g id="patch_8">
    <path d="M 817.451752 232.692847 
Q 674.282522 188.640776 531.113292 144.588705 
" style="fill: none; stroke: #ff0000; stroke-width: 1.5; stroke-linecap: round"/>
   </g>
   <g id="patch_9">
    <path d="M 355.265991 231.560771 
Q 380.880311 188.63948 406.49463 145.718188 
" style="fill: none; stroke: #ff0000; stroke-width: 1.5; stroke-linecap: round"/>
   </g>
  </g>
  <g id="axes_2">
   <g id="patch_10">
    <path d="M 354.24 424.8 
L 819.36 424.8 
L 819.36 233.28 
L 354.24 233.28 
z
" style="fill: #ffffff"/>
   </g>
   <g id="matplotlib.axis_3">
    <g id="xtick_8">
     <g id="line2d_26">
      <path d="M 410.270104 424.8 
L 410.270104 233.28 
" clip-path="url(#p050b126eaf)" style="fill: none; stroke-dasharray: 1,1.65; stroke-dashoffset: 0; stroke: #808080"/>
     </g>
    </g>
    <g id="xtick_9">
     <g id="line2d_27">
      <path d="M 499.328218 424.8 
L 499.328218 233.28 
" clip-path="url(#p050b126eaf)" style="fill: none; stroke-dasharray: 1,1.65; stroke-dashoffset: 0; stroke: #808080"/>
     </g>
    </g>
    <g id="xtick_10">
     <g id="line2d_28">
      <path d="M 588.386331 424.8 
L 588.386331 233.28 
" clip-path="url(#p050b126eaf)" style="fill: none; stroke-dasharray: 1,1.65; stroke-dashoffset: 0; stroke: #808080"/>
     </g>
    </g>
    <g id="xtick_11">
     <g id="line2d_29">
      <path d="M 677.444445 424.8 
L 677.444445 233.28 
" clip-path="url(#p050b126eaf)" style="fill: none; stroke-dasharray: 1,1.65; stroke-dashoffset: 0; stroke: #808080"/>
     </g>
    </g>
    <g id="xtick_12">
     <g id="line2d_30">
      <path d="M 766.502559 424.8 
L 766.502559 233.28 
" clip-path="url(#p050b126eaf)" style="fill: none; stroke-dasharray: 1,1.65; stroke-dashoffset: 0; stroke: #808080"/>
     </g>
    </g>
   </g>
   <g id="matplotlib.axis_4">
    <g id="ytick_6">
     <g id="line2d_31">
      <path d="M 354.24 407.511113 
L 819.36 407.511113 
" clip-path="url(#p050b126eaf)" style="fill: none; stroke-dasharray: 1,1.65; stroke-dashoffset: 0; stroke: #808080"/>
     </g>
    </g>
    <g id="ytick_7">
     <g id="line2d_32">
      <path d="M 354.24 360.778274 
L 819.36 360.778274 
" clip-path="url(#p050b126eaf)" style="fill: none; stroke-dasharray: 1,1.65; stroke-dashoffset: 0; stroke: #808080"/>
     </g>
    </g>
    <g id="ytick_8">
     <g id="line2d_33">
      <path d="M 354.24 314.045434 
L 819.36 314.045434 
" clip-path="url(#p050b126eaf)" style="fill: none; stroke-dasharray: 1,1.65; stroke-dashoffset: 0; stroke: #808080"/>
     </g>
    </g>
    <g id="ytick_9">
     <g id="line2d_34">
      <path d="M 354.24 267.312595 
L 819.36 267.312595 
" clip-path="url(#p050b126eaf)" style="fill: none; stroke-dasharray: 1,1.65; stroke-dashoffset: 0; stroke: #808080"/>
     </g>
    </g>
   </g>
   <g id="line2d_35">
    <path d="M 115.029662 505 
L 116.378329 497.761573 
L 117.389335 505 
M 126.351596 505 
L 129.737046 451.389511 
L 134.189952 500.154295 
L 138.642857 489.53192 
L 143.095763 454.342092 
L 147.548669 486.022284 
L 152.001574 485.723194 
L 156.45448 470.689239 
L 160.907386 427.080023 
L 165.360291 436.940652 
L 169.813197 455.856236 
L 174.266103 386.630413 
L 178.719008 423.912471 
L 183.171914 394.683884 
L 187.62482 407.847123 
L 192.077725 414.182694 
L 196.530631 405.859575 
L 200.983537 412.353103 
L 205.436443 415.806192 
L 209.889348 379.610674 
L 214.342254 402.084029 
L 218.79516 391.218644 
L 223.248065 392.145356 
L 227.700971 385.975686 
L 232.153877 355.656355 
L 236.606782 376.921199 
L 241.059688 379.628899 
L 245.512594 366.108154 
L 249.965499 332.243202 
L 254.418405 360.409084 
L 258.871311 315.279181 
L 263.324216 345.505982 
L 267.777122 306.591546 
L 272.230028 348.669795 
L 276.682933 385.122812 
L 281.135839 362.892468 
L 285.588745 324.345352 
L 290.041651 318.218677 
L 294.494556 362.811152 
L 298.947462 311.204078 
L 303.400368 334.491052 
L 307.853273 330.640266 
L 312.306179 327.724136 
L 316.759085 275.252504 
L 321.21199 316.199818 
L 325.664896 302.899652 
L 330.117802 321.0834 
L 334.570707 326.424964 
L 339.023613 336.089315 
L 343.476519 330.719711 
L 347.929424 260.662512 
L 352.38233 259.779261 
L 356.835236 306.456021 
L 361.288141 306.203664 
L 365.741047 245.563131 
L 370.193953 272.789684 
L 374.646859 222.30887 
L 379.099764 268.518302 
L 383.55267 254.269459 
L 388.005576 277.299403 
L 392.458481 281.03803 
L 396.911387 262.522479 
L 401.364293 275.948823 
L 405.817198 268.079013 
L 410.270104 218.261806 
L 414.72301 230.926406 
L 419.175915 229.337489 
L 423.628821 253.760071 
L 428.081727 226.884015 
L 432.534632 247.731535 
L 436.987538 205.938357 
L 441.440444 176.375162 
L 445.893349 202.639018 
L 450.346255 153.345219 
L 454.799161 222.94911 
L 459.252067 218.486124 
L 463.704972 207.499233 
L 468.157878 174.374997 
L 472.610784 191.927851 
L 477.063689 187.268587 
L 481.516595 170.87938 
L 485.969501 172.669248 
L 490.422406 148.199933 
L 494.875312 154.653738 
L 499.328218 170.005476 
L 503.781123 195.722558 
L 508.234029 189.623922 
L 512.686935 252.521651 
L 517.13984 154.747204 
L 521.592746 208.088067 
L 526.045652 196.446917 
L 530.498557 223.752915 
L 534.951463 222.005107 
L 539.404369 197.157256 
L 543.857275 215.280251 
L 548.31018 216.154155 
L 552.763086 202.283849 
L 557.215992 219.897456 
L 561.668897 230.949772 
L 566.121803 206.190714 
L 570.574709 248.698905 
L 575.027614 223.089309 
L 579.48052 229.197291 
L 583.933426 232.590095 
L 588.386331 236.454901 
L 592.839237 218.313212 
L 597.292143 249.979385 
L 601.745048 244.212552 
L 606.197954 251.119666 
L 610.65086 281.519378 
L 615.103765 267.709824 
L 619.556671 295.333605 
L 624.009577 242.221733 
L 628.462483 248.52132 
L 632.915388 236.179177 
L 637.368294 299.048866 
L 641.8212 290.104201 
L 646.274105 293.464292 
L 650.727011 285.697294 
L 655.179917 280.715573 
L 659.632822 272.14477 
L 664.085728 279.308915 
L 668.538634 292.36607 
L 672.991539 289.305069 
L 677.444445 282.94473 
L 681.897351 312.970579 
L 686.350256 321.130133 
L 690.803162 290.950065 
L 695.256068 262.457053 
L 699.708973 340.458835 
L 704.161879 304.423143 
L 708.614785 298.01607 
L 713.067691 324.793987 
L 717.520596 314.531456 
L 721.973502 299.086252 
L 726.426408 368.006442 
L 730.879313 313.49866 
L 735.332219 295.473804 
L 739.785125 357.871491 
L 744.23803 351.553211 
L 748.690936 357.974303 
L 753.143842 379.332146 
L 757.596747 400.080592 
L 762.049653 374.482679 
L 766.502559 388.829193 
L 770.955464 386.939785 
L 775.40837 374.689238 
L 779.861276 389.752167 
L 784.314181 419.042442 
L 788.767087 452.65971 
L 793.219993 418.557822 
L 797.672899 460.417361 
L 802.125804 410.549356 
L 806.57871 441.443828 
L 811.031616 447.065322 
L 815.484521 423.615717 
L 819.937427 435.201723 
L 824.390333 426.028534 
L 828.843238 399.666072 
L 833.296144 467.142217 
L 837.74905 468.12828 
L 845.263113 505 
M 847.19907 505 
L 851.107767 455.085144 
L 855.560672 488.00843 
L 859.445101 505 
M 860.528109 505 
L 864.466484 485.966204 
L 865 487.338569 
L 865 487.338569 
" clip-path="url(#p050b126eaf)" style="fill: none; stroke: #000000; stroke-width: 1.5; stroke-linecap: square"/>
   </g>
   <g id="patch_11">
    <path d="M 354.24 424.8 
L 354.24 233.28 
" style="fill: none; stroke: #000000; stroke-width: 0.8; stroke-linejoin: miter; stroke-linecap: square"/>
   </g>
   <g id="patch_12">
    <path d="M 819.36 424.8 
L 819.36 233.28 
" style="fill: none; stroke: #000000; stroke-width: 0.8; stroke-linejoin: miter; stroke-linecap: square"/>
   </g>
   <g id="patch_13">
    <path d="M 354.24 424.8 
L 819.36 424.8 
" style="fill: none; stroke: #000000; stroke-width: 0.8; stroke-linejoin: miter; stroke-linecap: square"/>
   </g>
   <g id="patch_14">
    <path d="M 354.24 233.28 
L 819.36 233.28 
" style="fill: none; stroke: #000000; stroke-width: 0.8; stroke-linejoin: miter; stroke-linecap: square"/>
   </g>
  </g>
 </g>
 <defs>
  <clipPath id="pe086812dac">
   <rect x="84.35" y="10.8" width="768.85" height="436.84"/>
  </clipPath>
  <clipPath id="p050b126eaf">
   <rect x="354.24" y="233.28" width="465.12" height="191.52"/>
  </clipPath>
 </defs>
</svg>
